<?xml version="1.0" encoding="UTF-8"?>
<svg xmlns="http://www.w3.org/2000/svg" xmlns:xlink="http://www.w3.org/1999/xlink" width="50pt" height="50pt" viewBox="0 0 50 50" version="1.1">
<g id="surface869269">
<path style=" stroke:none;fill-rule:nonzero;fill:rgb(0%,0%,0%);fill-opacity:1;" d="M 30.039062 7.359375 C 20.308594 7.359375 12.398438 15.269531 12.398438 25 C 12.398438 34.730469 20.308594 42.640625 30.039062 42.640625 C 32.550781 42.640625 34.9375 42.109375 37.097656 41.164062 C 37.402344 41.027344 37.601562 40.726562 37.601562 40.390625 C 37.601562 40.058594 37.402344 39.753906 37.097656 39.621094 C 31.464844 37.160156 27.519531 31.550781 27.519531 25 C 27.519531 18.449219 31.464844 12.839844 37.097656 10.378906 C 37.402344 10.246094 37.601562 9.941406 37.601562 9.609375 C 37.601562 9.273438 37.402344 8.972656 37.097656 8.835938 C 34.9375 7.890625 32.550781 7.359375 30.039062 7.359375 Z M 30.039062 9.039062 C 31.707031 9.039062 33.277344 9.375 34.792969 9.855469 C 29.5 12.898438 25.839844 18.464844 25.839844 25 C 25.839844 31.535156 29.5 37.101562 34.792969 40.144531 C 33.277344 40.625 31.707031 40.960938 30.039062 40.960938 C 21.214844 40.960938 14.078125 33.824219 14.078125 25 C 14.078125 16.175781 21.214844 9.039062 30.039062 9.039062 Z M 30.039062 9.039062 "/>
</g>
</svg>
