<?xml version="1.0" encoding="UTF-8"?>
<svg xmlns="http://www.w3.org/2000/svg" xmlns:xlink="http://www.w3.org/1999/xlink" width="90pt" height="90pt" viewBox="0 0 90 90" version="1.1">
<g id="surface20359999">
<path style=" stroke:none;fill-rule:nonzero;fill:rgb(11.764706%,12.54902%,17.254902%);fill-opacity:1;" d="M 28.636719 9 C 16.167969 9 6 19.167969 6 31.632812 C 6 42.847656 14.703125 54.253906 22.980469 63.355469 C 31.257812 72.460938 39.515625 79.105469 39.515625 79.105469 C 39.539062 79.128906 39.566406 79.148438 39.59375 79.164062 C 40.929688 80.175781 42.605469 80.832031 44.425781 80.953125 C 44.617188 80.988281 44.808594 81.003906 45 81 C 45.191406 81.003906 45.378906 80.988281 45.570312 80.953125 C 45.578125 80.953125 45.589844 80.949219 45.597656 80.945312 C 47.410156 80.820312 49.078125 80.171875 50.410156 79.164062 C 50.433594 79.148438 50.460938 79.128906 50.484375 79.105469 C 50.484375 79.105469 58.742188 72.460938 67.019531 63.355469 C 75.296875 54.253906 84 42.847656 84 31.632812 C 84 19.167969 73.832031 9 61.367188 9 C 53.523438 9 47.96875 13.316406 45 16.371094 C 42.03125 13.316406 36.476562 9 28.636719 9 Z M 28.636719 15 C 36.828125 15 41.8125 21.726562 42.3125 22.425781 C 42.828125 23.421875 43.859375 24.042969 44.984375 24.042969 C 45.007812 24.042969 45.03125 24.042969 45.050781 24.042969 C 45.078125 24.039062 45.101562 24.039062 45.125 24.035156 C 45.199219 24.03125 45.277344 24.027344 45.351562 24.019531 C 46.339844 23.910156 47.214844 23.316406 47.679688 22.4375 C 48.148438 21.773438 53.148438 15 61.363281 15 C 70.589844 15 78 22.410156 78 31.636719 C 78 39.441406 70.5 50.609375 62.578125 59.320312 C 54.683594 68 46.824219 74.339844 46.769531 74.386719 C 46.242188 74.777344 45.65625 75 45 75 C 44.34375 75 43.757812 74.777344 43.230469 74.386719 C 43.175781 74.339844 35.316406 68 27.421875 59.320312 C 19.5 50.609375 12 39.441406 12 31.636719 C 12 22.410156 19.410156 15 28.636719 15 Z M 28.636719 15 "/>
</g>
</svg>
