<?xml version="1.0" encoding="UTF-8"?>
<svg xmlns="http://www.w3.org/2000/svg" xmlns:xlink="http://www.w3.org/1999/xlink" width="48pt" height="48pt" viewBox="0 0 48 48" version="1.1">
<g id="surface897380">
<path style="fill-rule:nonzero;fill:rgb(0%,0%,0%);fill-opacity:1;stroke-width:1;stroke-linecap:butt;stroke-linejoin:round;stroke:rgb(80%,80%,80%);stroke-opacity:1;stroke-miterlimit:10;" d="M 157.662724 60.920159 C 157.662724 90.801924 122.458006 119.782447 112.657012 128.921592 C 101.349257 139.468926 86 153.001619 86 153.001619 C 86 153.001619 70.650743 139.468926 59.342988 128.921592 C 49.541994 119.782447 14.337276 90.801924 14.337276 60.920159 C 14.337276 39.149561 31.981881 21.504957 53.752478 21.504957 C 74.495098 21.504957 86 36.474003 86 36.474003 C 86 36.474003 97.504902 21.504957 118.247522 21.504957 C 140.018119 21.504957 157.662724 39.149561 157.662724 60.920159 Z M 143.327363 60.920159 C 143.327363 47.091746 132.075935 35.840318 118.247522 35.840318 C 105.151367 35.840318 97.434492 45.120282 97.364083 45.204773 L 86 57.329278 L 74.635917 45.204773 C 74.438771 44.965381 66.848633 35.840318 53.752478 35.840318 C 39.924065 35.840318 28.672637 47.091746 28.672637 60.920159 C 28.672637 81.831761 55.681697 106.263836 65.848819 115.459308 C 67.116189 116.599941 68.214577 117.599755 69.115817 118.430586 C 74.495098 123.443738 80.874193 129.20323 86 133.808007 C 91.125807 129.20323 97.49082 123.45782 102.884183 118.430586 C 103.771342 117.599755 104.883811 116.599941 106.151181 115.459308 C 116.318303 106.263836 143.327363 81.831761 143.327363 60.920159 Z M 143.327363 60.920159 " transform="matrix(0.277395,0,0,0.277395,0.144,0.144)"/>
<path style=" stroke:none;fill-rule:nonzero;fill:rgb(0%,0%,0%);fill-opacity:1;" d="M 32.945312 6.109375 C 27.191406 6.109375 24 10.261719 24 10.261719 C 24 10.261719 20.808594 6.109375 15.054688 6.109375 C 9.015625 6.109375 4.121094 11.003906 4.121094 17.042969 C 4.121094 25.332031 13.886719 33.371094 16.605469 35.90625 C 19.742188 38.832031 24 42.585938 24 42.585938 C 24 42.585938 28.257812 38.832031 31.394531 35.90625 C 34.113281 33.371094 43.878906 25.332031 43.878906 17.042969 C 43.878906 11.003906 38.984375 6.109375 32.945312 6.109375 Z M 29.589844 32.171875 C 29.238281 32.488281 28.929688 32.765625 28.683594 32.996094 C 27.1875 34.390625 25.421875 35.984375 24 37.261719 C 22.578125 35.984375 20.808594 34.386719 19.316406 32.996094 C 19.066406 32.765625 18.761719 32.488281 18.410156 32.171875 C 15.589844 29.621094 8.097656 22.84375 8.097656 17.042969 C 8.097656 13.207031 11.21875 10.085938 15.054688 10.085938 C 18.6875 10.085938 20.792969 12.617188 20.847656 12.683594 L 24 16.046875 L 27.152344 12.683594 C 27.171875 12.660156 29.3125 10.085938 32.945312 10.085938 C 36.78125 10.085938 39.902344 13.207031 39.902344 17.042969 C 39.902344 22.84375 32.410156 29.621094 29.589844 32.171875 Z M 29.589844 32.171875 "/>
</g>
</svg>
